<svg xmlns="http://www.w3.org/2000/svg" viewBox="0 0 1200 630">
  <defs>
    <!-- Nuxt UI inspired gradient -->
    <linearGradient id="bgGradient" x1="0%" y1="0%" x2="100%" y2="100%">
      <stop offset="0%" style="stop-color:#020420"/>
      <stop offset="50%" style="stop-color:#0f172a"/>
      <stop offset="100%" style="stop-color:#020420"/>
    </linearGradient>
    <!-- Glow effect -->
    <filter id="glow" x="-50%" y="-50%" width="200%" height="200%">
      <feGaussianBlur stdDeviation="2" result="coloredBlur"/>
      <feMerge>
        <feMergeNode in="coloredBlur"/>
        <feMergeNode in="SourceGraphic"/>
      </feMerge>
    </filter>
    <filter id="softGlow" x="-50%" y="-50%" width="200%" height="200%">
      <feGaussianBlur stdDeviation="4" result="coloredBlur"/>
      <feMerge>
        <feMergeNode in="coloredBlur"/>
        <feMergeNode in="SourceGraphic"/>
      </feMerge>
    </filter>
  </defs>
  
  <!-- Background -->
  <rect width="1200" height="630" fill="url(#bgGradient)"/>
  
  <!-- Subtle grid pattern -->
  <g opacity="0.03">
    <pattern id="grid" width="40" height="40" patternUnits="userSpaceOnUse">
      <path d="M 40 0 L 0 0 0 40" fill="none" stroke="#ffffff" stroke-width="1"/>
    </pattern>
    <rect width="1200" height="630" fill="url(#grid)"/>
  </g>
  
  <!-- Radar display -->
  <g transform="translate(140, 55)">
    <!-- Radar background with subtle border glow -->
    <circle cx="260" cy="260" r="252" fill="#0c1222" stroke="#1e3a5f" stroke-width="2" filter="url(#softGlow)"/>
    <circle cx="260" cy="260" r="248" fill="#0a0f1a"/>
    
    <!-- Radar rings with Nuxt green -->
    <circle cx="260" cy="260" r="210" fill="none" stroke="#00dc82" stroke-width="0.75" opacity="0.3"/>
    <circle cx="260" cy="260" r="157" fill="none" stroke="#00dc82" stroke-width="0.75" opacity="0.25"/>
    <circle cx="260" cy="260" r="105" fill="none" stroke="#00dc82" stroke-width="0.75" opacity="0.2"/>
    <circle cx="260" cy="260" r="52" fill="none" stroke="#00dc82" stroke-width="0.75" opacity="0.15"/>
    
    <!-- Bearing lines -->
    <line x1="260" y1="12" x2="260" y2="508" stroke="#00dc82" stroke-width="0.5" opacity="0.15"/>
    <line x1="12" y1="260" x2="508" y2="260" stroke="#00dc82" stroke-width="0.5" opacity="0.15"/>
    <line x1="85" y1="85" x2="435" y2="435" stroke="#00dc82" stroke-width="0.3" opacity="0.1"/>
    <line x1="435" y1="85" x2="85" y2="435" stroke="#00dc82" stroke-width="0.3" opacity="0.1"/>
    
    <!-- Heading line pointing UP (course-up mode) with glow -->
    <line x1="260" y1="260" x2="260" y2="25" stroke="#00dc82" stroke-width="2.5" filter="url(#glow)"/>
    <polygon points="260,18 252,35 268,35" fill="#00dc82" filter="url(#glow)"/>
    
    <!-- Own ship position -->
    <circle cx="260" cy="260" r="6" fill="#00dc82" filter="url(#glow)"/>
    
    <!-- Target observation points - crossing situation from starboard -->
    <!-- B₀ observation (first bearing) - starboard bow -->
    <g transform="translate(390, 130)">
      <line x1="-6" y1="0" x2="6" y2="0" stroke="#f43f5e" stroke-width="2"/>
      <line x1="0" y1="-6" x2="0" y2="6" stroke="#f43f5e" stroke-width="2"/>
    </g>
    <text x="402" y="128" font-family="system-ui, sans-serif" font-size="11" fill="#f43f5e" opacity="0.9">B₀</text>
    
    <!-- B₁ observation (second bearing) - target moved across -->
    <g transform="translate(350, 180)">
      <line x1="-6" y1="0" x2="6" y2="0" stroke="#f43f5e" stroke-width="2"/>
      <line x1="0" y1="-6" x2="0" y2="6" stroke="#f43f5e" stroke-width="2"/>
    </g>
    <text x="362" y="178" font-family="system-ui, sans-serif" font-size="11" fill="#f43f5e" opacity="0.9">B₁</text>
    
    <!-- Relative motion vector (B₀ to B₁) - solid red -->
    <line x1="390" y1="130" x2="350" y2="180" stroke="#f43f5e" stroke-width="2" filter="url(#glow)"/>
    
    <!-- Relative motion extension to CPA - dashed -->
    <line x1="350" y1="180" x2="220" y2="342" stroke="#f43f5e" stroke-width="1.5" stroke-dasharray="6,4" opacity="0.7"/>
    
    <!-- Velocity triangle apex (below B₀ - own ship traveled north) -->
    <circle cx="390" cy="190" r="2" fill="#00dc82" opacity="0.6"/>
    
    <!-- Own ship vector (green) - apex to B₀ - points NORTH matching heading -->
    <line x1="390" y1="190" x2="390" y2="130" stroke="#00dc82" stroke-width="2"/>
    <!-- Single arrow at midpoint pointing up -->
    <polygon points="394,163.7 390,155 386,163.7" fill="#00dc82"/>
    
    <!-- True motion vector (blue) - apex to B₁ - two arrows >> -->
    <line x1="390" y1="190" x2="350" y2="180" stroke="#3b82f6" stroke-width="2"/>
    <!-- Front arrow -->
    <polygon points="371.6,181.3 362.2,183.1 369.6,189.1" fill="#3b82f6"/>
    <!-- Back arrow -->
    <polygon points="379.4,183.2 370,185 377.4,191" fill="#3b82f6"/>
    
    <!-- CPA point and line (perpendicular to relative motion) -->
    <line x1="260" y1="260" x2="276" y2="273" stroke="#f97316" stroke-width="1.5" opacity="0.8"/>
    <text x="282" y="286" font-family="system-ui, sans-serif" font-size="10" fill="#f97316">CPA 0,5sm</text>
    
    <!-- Range labels -->
    <text x="260" y="58" text-anchor="middle" font-family="ui-monospace, monospace" font-size="9" fill="#64748b">6</text>
    <text x="260" y="111" text-anchor="middle" font-family="ui-monospace, monospace" font-size="9" fill="#64748b">4,5</text>
    <text x="260" y="163" text-anchor="middle" font-family="ui-monospace, monospace" font-size="9" fill="#64748b">3</text>
    <text x="260" y="216" text-anchor="middle" font-family="ui-monospace, monospace" font-size="9" fill="#64748b">1,5</text>
  </g>
  
  <!-- Text content - Right side -->
  <g transform="translate(620, 100)">
    <!-- Logo/Title with Nuxt green accent -->
    <rect x="-8" y="0" width="4" height="45" rx="2" fill="#00dc82"/>
    <text x="8" font-family="system-ui, -apple-system, sans-serif" font-size="52" font-weight="700" fill="#ffffff">
      Radarplot
    </text>
    <text x="8" y="50" font-family="system-ui, sans-serif" font-size="20" fill="#94a3b8">
      Nautisches Radar-Plotting-Hilfsmittel
    </text>
    
    <!-- Feature list with modern styling -->
    <g transform="translate(8, 100)">
      <g transform="translate(0, 0)">
        <rect width="24" height="24" rx="6" fill="#00dc82" opacity="0.15"/>
        <text x="12" y="17" text-anchor="middle" font-size="14" fill="#00dc82">✓</text>
        <text x="34" y="17" font-family="system-ui, sans-serif" font-size="16" fill="#e2e8f0">CPA- &amp; TCPA-Berechnung</text>
      </g>
      <g transform="translate(0, 40)">
        <rect width="24" height="24" rx="6" fill="#00dc82" opacity="0.15"/>
        <text x="12" y="17" text-anchor="middle" font-size="14" fill="#00dc82">✓</text>
        <text x="34" y="17" font-family="system-ui, sans-serif" font-size="16" fill="#e2e8f0">Wahre &amp; relative Bewegungsvektoren</text>
      </g>
      <g transform="translate(0, 80)">
        <rect width="24" height="24" rx="6" fill="#00dc82" opacity="0.15"/>
        <text x="12" y="17" text-anchor="middle" font-size="14" fill="#00dc82">✓</text>
        <text x="34" y="17" font-family="system-ui, sans-serif" font-size="16" fill="#e2e8f0">Manöverplanung</text>
      </g>
      <g transform="translate(0, 120)">
        <rect width="24" height="24" rx="6" fill="#00dc82" opacity="0.15"/>
        <text x="12" y="17" text-anchor="middle" font-size="14" fill="#00dc82">✓</text>
        <text x="34" y="17" font-family="system-ui, sans-serif" font-size="16" fill="#e2e8f0">KVR Regel 19 Analyse</text>
      </g>
      <g transform="translate(0, 160)">
        <rect width="24" height="24" rx="6" fill="#00dc82" opacity="0.15"/>
        <text x="12" y="17" text-anchor="middle" font-size="14" fill="#00dc82">✓</text>
        <text x="34" y="17" font-family="system-ui, sans-serif" font-size="16" fill="#e2e8f0">Kostenlos &amp; Open Source</text>
      </g>
    </g>
    
    <!-- Tagline -->
    <text y="330" font-family="system-ui, sans-serif" font-size="15" fill="#64748b">
      Perfekt für nautische Ausbildung &amp; Schulung
    </text>
  </g>
  
  <!-- Footer -->
  <g transform="translate(0, 580)">
    <rect width="1200" height="50" fill="#020420" opacity="0.5"/>
    <text x="600" y="32" text-anchor="middle" font-family="system-ui, sans-serif" font-size="13" fill="#64748b">
      Basierend auf Radarplot von Erhard Wendt • GPL v2 Lizenz • radarplot.app
    </text>
  </g>
</svg>
